<svg xmlns="http://www.w3.org/2000/svg" xmlns:xlink="http://www.w3.org/1999/xlink" width="1200" zoomAndPan="magnify" viewBox="0 0 900 899.99999" height="1200" preserveAspectRatio="xMidYMid meet" version="1.0"><defs><g/><clipPath id="61d188da62"><path d="M 243 42.132812 L 667 42.132812 L 667 262 L 243 262 Z M 243 42.132812 " clip-rule="nonzero"/></clipPath><clipPath id="861b693405"><path d="M 69.25 555 L 437 555 L 437 626.382812 L 69.25 626.382812 Z M 69.25 555 " clip-rule="nonzero"/></clipPath><clipPath id="6e94e7a44b"><path d="M 463 555 L 830.5 555 L 830.5 626.382812 L 463 626.382812 Z M 463 555 " clip-rule="nonzero"/></clipPath><clipPath id="21065a7ca0"><path d="M 369 301 L 531 301 L 531 610.808594 L 369 610.808594 Z M 369 301 " clip-rule="nonzero"/></clipPath><clipPath id="4381aaa37b"><path d="M 399 250.808594 L 501 250.808594 L 501 295 L 399 295 Z M 399 250.808594 " clip-rule="nonzero"/></clipPath><clipPath id="089a156d5f"><rect x="0" width="293" y="0" height="46"/></clipPath></defs><path fill="#3c456a" d="M 69.734375 159.828125 C 112.886719 96.125 173.605469 43.253906 244.21875 8.695312 C 279.527344 -8.304688 317.265625 -21.195312 355.75 -28.667969 C 394.421875 -35.953125 434.027344 -38.382812 473.070312 -35.765625 C 512.113281 -32.964844 550.972656 -25.117188 587.777344 -12.601562 C 624.578125 0.289062 659.511719 17.660156 691.273438 39.332031 C 754.789062 82.488281 805.789062 141.707031 837.734375 208.214844 C 840.726562 214.566406 834.558594 215.875 831.382812 210.082031 C 795.328125 146.191406 742.832031 91.640625 680.25 52.222656 C 648.863281 32.605469 615.050781 16.914062 579.742188 5.332031 C 544.433594 -5.875 507.632812 -12.976562 470.453125 -15.40625 C 433.277344 -17.644531 395.726562 -15.40625 358.925781 -8.679688 C 322.121094 -1.765625 286.253906 9.816406 252.066406 25.507812 C 184.066406 57.265625 123.722656 106.027344 79.074219 166.742188 C 70.667969 177.761719 61.699219 171.597656 69.734375 159.828125 Z M 468.398438 886.171875 C 406.75 888.039062 344.355469 877.390625 286.8125 854.597656 C 229.273438 831.996094 176.59375 797.808594 132.503906 754.839844 C 88.414062 711.871094 52.734375 660.308594 28.445312 603.890625 C 3.972656 547.472656 -9.101562 486.011719 -10.597656 424.359375 C -10.785156 414.085938 -17.324219 413.339844 -17.324219 424.175781 C -17.507812 487.132812 -5.554688 550.089844 18.359375 608.375 C 42.273438 666.664062 78.140625 720.089844 123.164062 764.554688 C 168.1875 809.015625 222.363281 844.324219 281.769531 867.117188 C 341.179688 890.09375 405.441406 899.996094 468.773438 896.632812 C 485.398438 895.324219 484.464844 885.425781 468.398438 886.171875 Z M 904.242188 445.097656 C 901.066406 514.40625 883.132812 583.34375 851.1875 645.738281 C 819.054688 707.949219 773.097656 763.621094 716.304688 805.46875 C 706.21875 812.941406 710.328125 819.664062 720.976562 812.003906 C 779.636719 770.90625 829.328125 715.980469 864.078125 652.464844 C 898.453125 588.945312 917.507812 516.648438 916.757812 445.472656 C 916.574219 426.042969 905.175781 425.855469 904.242188 445.097656 Z M 747.503906 183.929688 C 775.152344 218.675781 797.382812 257.347656 813.449219 298.445312 C 829.140625 339.734375 838.671875 383.074219 841.660156 427.351562 C 842.21875 432.769531 846.144531 431.460938 846.144531 426.417969 C 847.449219 381.765625 840.726562 336.558594 826.714844 293.214844 C 812.328125 250.0625 790.285156 208.960938 761.703125 172.53125 C 732.933594 136.289062 697.808594 104.90625 658.207031 80.433594 C 618.601562 55.960938 574.699219 38.960938 529.300781 29.804688 C 514.542969 27.191406 512.863281 36.71875 526.5 40.078125 C 570.027344 51.664062 611.6875 69.785156 648.863281 94.445312 C 686.226562 118.917969 719.667969 149.179688 747.503906 183.929688 Z M 150.4375 733.542969 C 183.316406 766.609375 221.800781 793.882812 263.648438 814.621094 C 305.683594 834.984375 351.078125 848.996094 397.597656 854.597656 C 407.3125 856.09375 412.730469 852.730469 413.289062 849.742188 C 413.847656 846.378906 409.550781 843.015625 400.210938 841.523438 C 355.375 835.359375 311.660156 821.53125 271.308594 801.730469 C 231.144531 781.367188 193.964844 755.214844 162.394531 723.269531 C 98.878906 659.9375 56.84375 575.871094 45.261719 487.503906 C 33.304688 399.140625 50.304688 307.039062 94.765625 229.886719 C 138.480469 152.167969 208.539062 89.773438 290.550781 54.277344 C 302.320312 49.421875 300.078125 40.640625 287.5625 45.496094 C 203.121094 80.433594 130.261719 143.390625 84.117188 222.972656 C 37.226562 301.996094 18.359375 397.085938 30.128906 488.625 C 41.152344 580.167969 84.492188 667.78125 150.4375 733.542969 Z M 827.085938 575.308594 C 813.636719 605.761719 798.316406 635.464844 779.449219 663.300781 C 770.296875 677.3125 760.019531 690.574219 749.371094 703.652344 C 738.351562 716.355469 727.140625 728.871094 714.8125 740.269531 C 704.910156 749.609375 713.316406 756.519531 723.964844 747.179688 C 749.371094 724.574219 772.535156 699.167969 792.152344 671.144531 C 811.957031 643.308594 827.835938 612.859375 839.042969 580.914062 C 842.21875 572.320312 840.726562 566.527344 837.921875 565.222656 C 834.933594 563.914062 831.011719 566.902344 827.085938 575.308594 Z M 827.085938 575.308594 " fill-opacity="1" fill-rule="nonzero"/><path fill="#048dec" d="M 538.800781 252.21875 C 538.800781 253.671875 538.765625 255.125 538.695312 256.574219 C 538.621094 258.027344 538.515625 259.476562 538.371094 260.921875 C 538.230469 262.367188 538.050781 263.808594 537.839844 265.246094 C 537.625 266.683594 537.378906 268.117188 537.09375 269.542969 C 536.8125 270.964844 536.492188 272.382812 536.140625 273.792969 C 535.785156 275.203125 535.398438 276.601562 534.976562 277.992188 C 534.554688 279.382812 534.101562 280.761719 533.609375 282.132812 C 533.121094 283.5 532.597656 284.855469 532.042969 286.195312 C 531.484375 287.539062 530.898438 288.867188 530.277344 290.179688 C 529.65625 291.496094 529 292.792969 528.316406 294.074219 C 527.632812 295.355469 526.914062 296.621094 526.167969 297.867188 C 525.421875 299.113281 524.644531 300.339844 523.835938 301.546875 C 523.03125 302.753906 522.191406 303.941406 521.328125 305.109375 C 520.460938 306.277344 519.566406 307.421875 518.644531 308.546875 C 517.726562 309.667969 516.777344 310.769531 515.800781 311.847656 C 514.824219 312.921875 513.824219 313.972656 512.796875 315.003906 C 511.765625 316.03125 510.714844 317.03125 509.640625 318.007812 C 508.5625 318.984375 507.460938 319.933594 506.339844 320.855469 C 505.214844 321.773438 504.070312 322.667969 502.902344 323.535156 C 501.734375 324.398438 500.546875 325.238281 499.339844 326.042969 C 498.132812 326.851562 496.90625 327.628906 495.660156 328.375 C 494.414062 329.121094 493.148438 329.839844 491.867188 330.523438 C 490.585938 331.207031 489.289062 331.863281 487.972656 332.484375 C 486.660156 333.105469 485.332031 333.691406 483.988281 334.25 C 482.648438 334.804688 481.292969 335.328125 479.925781 335.816406 C 478.554688 336.308594 477.175781 336.761719 475.785156 337.183594 C 474.394531 337.605469 472.996094 337.992188 471.585938 338.347656 C 470.175781 338.699219 468.757812 339.019531 467.335938 339.300781 C 465.910156 339.585938 464.476562 339.832031 463.039062 340.046875 C 461.601562 340.257812 460.160156 340.4375 458.714844 340.578125 C 457.269531 340.722656 455.820312 340.828125 454.367188 340.902344 C 452.917969 340.972656 451.464844 341.007812 450.011719 341.007812 C 448.558594 341.007812 447.105469 340.972656 445.65625 340.902344 C 444.203125 340.828125 442.753906 340.722656 441.308594 340.578125 C 439.863281 340.4375 438.421875 340.257812 436.984375 340.046875 C 435.546875 339.832031 434.117188 339.585938 432.691406 339.300781 C 431.265625 339.019531 429.847656 338.699219 428.4375 338.347656 C 427.027344 337.992188 425.628906 337.605469 424.238281 337.183594 C 422.847656 336.761719 421.46875 336.308594 420.101562 335.816406 C 418.734375 335.328125 417.378906 334.804688 416.035156 334.25 C 414.691406 333.691406 413.363281 333.105469 412.050781 332.484375 C 410.738281 331.863281 409.441406 331.207031 408.15625 330.523438 C 406.875 329.839844 405.613281 329.121094 404.367188 328.375 C 403.121094 327.628906 401.894531 326.851562 400.683594 326.042969 C 399.476562 325.238281 398.289062 324.398438 397.121094 323.535156 C 395.953125 322.667969 394.808594 321.777344 393.6875 320.855469 C 392.5625 319.933594 391.460938 318.984375 390.386719 318.007812 C 389.308594 317.03125 388.257812 316.03125 387.230469 315.003906 C 386.203125 313.972656 385.199219 312.921875 384.226562 311.847656 C 383.25 310.769531 382.300781 309.667969 381.378906 308.546875 C 380.457031 307.421875 379.5625 306.277344 378.699219 305.109375 C 377.832031 303.941406 376.996094 302.753906 376.1875 301.546875 C 375.378906 300.339844 374.605469 299.113281 373.855469 297.867188 C 373.109375 296.621094 372.394531 295.355469 371.707031 294.074219 C 371.023438 292.792969 370.371094 291.496094 369.75 290.179688 C 369.128906 288.867188 368.539062 287.539062 367.984375 286.195312 C 367.425781 284.855469 366.902344 283.5 366.414062 282.132812 C 365.925781 280.761719 365.46875 279.382812 365.046875 277.992188 C 364.625 276.601562 364.238281 275.203125 363.886719 273.792969 C 363.53125 272.382812 363.214844 270.964844 362.929688 269.542969 C 362.648438 268.117188 362.398438 266.683594 362.183594 265.246094 C 361.972656 263.808594 361.792969 262.367188 361.652344 260.921875 C 361.507812 259.476562 361.402344 258.027344 361.332031 256.574219 C 361.261719 255.125 361.222656 253.671875 361.222656 252.21875 C 361.222656 250.765625 361.261719 249.3125 361.332031 247.863281 C 361.402344 246.410156 361.507812 244.960938 361.652344 243.515625 C 361.792969 242.070312 361.972656 240.628906 362.183594 239.191406 C 362.398438 237.753906 362.648438 236.324219 362.929688 234.898438 C 363.214844 233.472656 363.53125 232.054688 363.886719 230.644531 C 364.238281 229.234375 364.625 227.835938 365.046875 226.445312 C 365.46875 225.054688 365.925781 223.675781 366.414062 222.308594 C 366.902344 220.941406 367.425781 219.585938 367.984375 218.242188 C 368.539062 216.898438 369.128906 215.570312 369.75 214.257812 C 370.371094 212.945312 371.023438 211.648438 371.707031 210.363281 C 372.394531 209.082031 373.109375 207.820312 373.855469 206.574219 C 374.601562 205.328125 375.378906 204.101562 376.1875 202.890625 C 376.996094 201.683594 377.832031 200.496094 378.699219 199.328125 C 379.5625 198.160156 380.457031 197.015625 381.378906 195.894531 C 382.300781 194.769531 383.25 193.667969 384.226562 192.59375 C 385.199219 191.515625 386.203125 190.464844 387.230469 189.4375 C 388.257812 188.410156 389.308594 187.40625 390.386719 186.433594 C 391.460938 185.457031 392.5625 184.507812 393.6875 183.585938 C 394.808594 182.664062 395.953125 181.769531 397.121094 180.90625 C 398.289062 180.039062 399.476562 179.203125 400.683594 178.394531 C 401.894531 177.585938 403.121094 176.808594 404.367188 176.0625 C 405.613281 175.316406 406.875 174.601562 408.15625 173.914062 C 409.441406 173.230469 410.738281 172.578125 412.050781 171.957031 C 413.363281 171.335938 414.691406 170.746094 416.035156 170.191406 C 417.378906 169.632812 418.734375 169.109375 420.101562 168.621094 C 421.46875 168.132812 422.847656 167.675781 424.238281 167.253906 C 425.628906 166.832031 427.027344 166.445312 428.4375 166.09375 C 429.847656 165.738281 431.265625 165.421875 432.691406 165.136719 C 434.117188 164.855469 435.546875 164.605469 436.984375 164.390625 C 438.421875 164.179688 439.863281 164 441.308594 163.859375 C 442.753906 163.714844 444.203125 163.609375 445.65625 163.539062 C 447.105469 163.46875 448.558594 163.429688 450.011719 163.429688 C 451.464844 163.429688 452.917969 163.46875 454.367188 163.539062 C 455.820312 163.609375 457.269531 163.714844 458.714844 163.859375 C 460.160156 164 461.601562 164.179688 463.039062 164.390625 C 464.476562 164.605469 465.910156 164.855469 467.335938 165.136719 C 468.757812 165.421875 470.175781 165.738281 471.585938 166.09375 C 472.996094 166.445312 474.394531 166.832031 475.785156 167.253906 C 477.175781 167.675781 478.554688 168.132812 479.925781 168.621094 C 481.292969 169.109375 482.648438 169.632812 483.988281 170.191406 C 485.332031 170.746094 486.660156 171.335938 487.972656 171.957031 C 489.289062 172.578125 490.585938 173.230469 491.867188 173.914062 C 493.148438 174.601562 494.414062 175.316406 495.660156 176.0625 C 496.90625 176.808594 498.132812 177.585938 499.339844 178.394531 C 500.546875 179.203125 501.734375 180.039062 502.902344 180.90625 C 504.070312 181.769531 505.214844 182.664062 506.339844 183.585938 C 507.460938 184.507812 508.5625 185.457031 509.640625 186.433594 C 510.714844 187.40625 511.765625 188.410156 512.796875 189.4375 C 513.824219 190.464844 514.824219 191.515625 515.800781 192.59375 C 516.777344 193.667969 517.726562 194.769531 518.644531 195.894531 C 519.566406 197.015625 520.460938 198.160156 521.328125 199.328125 C 522.191406 200.496094 523.03125 201.683594 523.835938 202.890625 C 524.644531 204.101562 525.421875 205.328125 526.167969 206.574219 C 526.914062 207.820312 527.632812 209.082031 528.316406 210.363281 C 529 211.648438 529.65625 212.945312 530.277344 214.257812 C 530.898438 215.570312 531.484375 216.898438 532.042969 218.242188 C 532.597656 219.585938 533.121094 220.941406 533.609375 222.308594 C 534.101562 223.675781 534.554688 225.054688 534.976562 226.445312 C 535.398438 227.835938 535.785156 229.234375 536.140625 230.644531 C 536.492188 232.054688 536.8125 233.472656 537.09375 234.898438 C 537.378906 236.324219 537.625 237.753906 537.839844 239.191406 C 538.050781 240.628906 538.230469 242.070312 538.371094 243.515625 C 538.515625 244.960938 538.621094 246.410156 538.695312 247.863281 C 538.765625 249.3125 538.800781 250.765625 538.800781 252.21875 Z M 538.800781 252.21875 " fill-opacity="1" fill-rule="nonzero"/><g clip-path="url(#61d188da62)"><path fill="#048dec" d="M 656.136719 232.648438 L 656.136719 124.496094 C 656.421875 124.375 656.707031 124.25 656.996094 124.128906 C 588.011719 96.804688 519.027344 69.480469 450.042969 42.15625 C 450.042969 42.148438 450.042969 42.140625 450.042969 42.132812 C 450.035156 42.132812 450.023438 42.140625 450.011719 42.144531 C 450.003906 42.140625 449.992188 42.132812 449.980469 42.132812 C 449.980469 42.140625 449.980469 42.148438 449.980469 42.15625 C 381 69.480469 312.011719 96.804688 243.03125 124.128906 C 275.269531 137.867188 307.503906 151.605469 339.742188 165.34375 C 339.742188 182.601562 339.742188 199.863281 339.742188 217.125 C 342.527344 207.121094 353.027344 174.25 386 150.816406 C 412.21875 132.179688 438.789062 129.363281 450.011719 128.820312 C 461.238281 129.363281 487.808594 132.179688 514.027344 150.816406 C 546.992188 174.246094 557.496094 207.117188 560.28125 217.125 C 560.28125 199.863281 560.28125 182.601562 560.28125 165.34375 C 589.597656 152.851562 618.914062 140.359375 648.230469 127.867188 L 648.230469 232.640625 C 642.144531 234.363281 637.675781 239.941406 637.675781 246.578125 C 637.675781 254.585938 644.167969 261.074219 652.171875 261.074219 C 660.179688 261.074219 666.667969 254.585938 666.667969 246.578125 C 666.664062 239.949219 662.210938 234.375 656.136719 232.648438 Z M 656.136719 232.648438 " fill-opacity="1" fill-rule="nonzero"/></g><path fill="#048dec" d="M 329.765625 471.066406 C 287.15625 448.378906 247 444.664062 224.308594 444.371094 C 241.214844 410.773438 258.125 377.179688 275.035156 343.585938 C 263.242188 341.359375 251.453125 339.132812 239.660156 336.914062 C 215.410156 385.414062 191.160156 433.914062 166.910156 482.414062 C 192.558594 478.75 254.269531 473.453125 323.089844 503.777344 C 386.675781 531.785156 423.183594 575.601562 438.558594 596.550781 C 431.042969 576.816406 402.757812 509.929688 329.765625 471.066406 Z M 329.765625 471.066406 " fill-opacity="1" fill-rule="nonzero"/><path fill="#048dec" d="M 283.046875 536.476562 C 345.207031 549.421875 390.445312 576.925781 416.535156 595.878906 C 399.457031 575.742188 369.195312 545.621094 323.09375 523.796875 C 242.917969 485.835938 167.808594 498.039062 140.882812 503.773438 C 167.359375 451.714844 193.832031 399.652344 220.308594 347.589844 C 170.917969 417.894531 121.527344 488.199219 72.136719 558.503906 C 103.519531 545.082031 183.890625 515.824219 283.046875 536.476562 Z M 283.046875 536.476562 " fill-opacity="1" fill-rule="nonzero"/><g clip-path="url(#861b693405)"><path fill="#048dec" d="M 69.464844 603.21875 C 115.039062 594.191406 175.761719 586.753906 247.003906 590.539062 C 325.28125 594.691406 389.945312 611 436.554688 626.582031 C 414.4375 608.496094 355.195312 564.996094 267.027344 556.5 C 166.554688 546.816406 92.648438 588.769531 69.464844 603.21875 Z M 69.464844 603.21875 " fill-opacity="1" fill-rule="nonzero"/></g><path fill="#048dec" d="M 450.542969 536.261719 C 450.882812 534.226562 451.28125 531.59375 451.671875 528.4375 C 456.882812 496.121094 476.515625 414.910156 550.90625 363.609375 C 591.339844 335.726562 632.140625 327.585938 656.363281 324.898438 C 651.019531 312.441406 645.683594 299.980469 640.34375 287.523438 C 625.976562 288.769531 549.511719 296.828125 494.394531 363.613281 C 467.53125 396.160156 455.191406 431.210938 450.015625 461.511719 C 444.839844 431.210938 432.496094 396.164062 405.636719 363.613281 C 350.519531 296.828125 274.054688 288.769531 259.6875 287.523438 C 254.347656 299.980469 249.011719 312.441406 243.667969 324.898438 C 267.890625 327.585938 308.691406 335.726562 349.125 363.609375 C 423.515625 414.910156 443.148438 496.121094 448.359375 528.4375 C 448.75 531.59375 449.148438 534.226562 449.488281 536.261719 C 449.664062 537.675781 449.804688 538.871094 449.910156 539.8125 C 449.945312 539.640625 449.976562 539.449219 450.015625 539.246094 C 450.054688 539.449219 450.089844 539.640625 450.121094 539.8125 C 450.226562 538.871094 450.363281 537.675781 450.542969 536.261719 Z M 450.542969 536.261719 " fill-opacity="1" fill-rule="nonzero"/><path fill="#048dec" d="M 576.933594 503.773438 C 645.753906 473.453125 707.46875 478.75 733.117188 482.414062 C 708.867188 433.914062 684.617188 385.414062 660.367188 336.910156 C 648.574219 339.132812 636.785156 341.359375 624.992188 343.582031 C 641.898438 377.179688 658.808594 410.769531 675.71875 444.367188 C 653.023438 444.660156 612.871094 448.378906 570.261719 471.0625 C 497.269531 509.925781 468.984375 576.8125 461.46875 596.542969 C 476.839844 575.597656 513.347656 531.785156 576.933594 503.773438 Z M 576.933594 503.773438 " fill-opacity="1" fill-rule="nonzero"/><path fill="#048dec" d="M 576.933594 523.792969 C 530.832031 545.621094 500.570312 575.742188 483.492188 595.875 C 509.578125 576.925781 554.820312 549.417969 616.980469 536.472656 C 716.132812 515.820312 796.503906 545.078125 827.894531 558.496094 C 778.503906 488.195312 729.113281 417.890625 679.722656 347.585938 C 706.199219 399.644531 732.671875 451.703125 759.148438 503.765625 C 732.21875 498.035156 657.109375 485.832031 576.933594 523.792969 Z M 576.933594 523.792969 " fill-opacity="1" fill-rule="nonzero"/><g clip-path="url(#6e94e7a44b)"><path fill="#048dec" d="M 632.996094 556.5 C 544.832031 564.996094 485.585938 608.496094 463.46875 626.582031 C 510.082031 611 574.742188 594.695312 653.019531 590.539062 C 724.265625 586.753906 784.984375 594.191406 830.558594 603.21875 C 807.378906 588.769531 733.46875 546.816406 632.996094 556.5 Z M 632.996094 556.5 " fill-opacity="1" fill-rule="nonzero"/></g><g clip-path="url(#21065a7ca0)"><path fill="#048dec" d="M 445.941406 610.75 L 445.941406 452.765625 C 440.691406 451.136719 436.253906 445.996094 436.253906 439.898438 C 436.253906 432.496094 442.167969 426.496094 449.574219 426.496094 C 449.710938 426.496094 449.867188 426.503906 450.007812 426.507812 C 450.144531 426.503906 450.292969 426.496094 450.433594 426.496094 C 457.835938 426.496094 463.792969 432.496094 463.792969 439.898438 C 463.792969 445.996094 459.359375 451.136719 454.109375 452.765625 L 454.109375 610.75 C 477.441406 498.691406 531.019531 448.570312 531.019531 448.570312 C 531.019531 448.570312 490.65625 362.855469 490.9375 301.320312 L 409.113281 301.320312 C 409.394531 362.855469 369.035156 448.570312 369.035156 448.570312 C 369.035156 448.570312 422.613281 498.691406 445.941406 610.75 Z M 445.941406 610.75 " fill-opacity="1" fill-rule="nonzero"/></g><g clip-path="url(#4381aaa37b)"><path fill="#048dec" d="M 500.480469 294.613281 L 500.480469 250.867188 L 399.570312 250.867188 L 399.570312 294.613281 Z M 500.480469 294.613281 " fill-opacity="1" fill-rule="nonzero"/></g><g fill="#182b5c" fill-opacity="1"><g transform="translate(172.882174, 739.362701)"><g><path d="M 76.8125 -8.625 C 77.050781 -8.625 77.234375 -8.566406 77.359375 -8.453125 C 77.441406 -8.367188 77.484375 -8.253906 77.484375 -8.109375 C 77.484375 -7.972656 77.441406 -7.882812 77.359375 -7.84375 C 76.347656 -4.632812 74.65625 -2.148438 72.28125 -0.390625 C 69.914062 1.367188 67.296875 2.25 64.421875 2.25 C 62.992188 2.25 61.625 2.054688 60.3125 1.671875 C 59 1.285156 57.703125 0.648438 56.421875 -0.234375 C 55.148438 -1.128906 53.851562 -2.273438 52.53125 -3.671875 C 51.21875 -5.066406 49.875 -6.800781 48.5 -8.875 C 46.675781 -11.507812 44.878906 -14.300781 43.109375 -17.25 C 41.347656 -20.207031 39.707031 -23.125 38.1875 -26 C 36.664062 -28.882812 35.304688 -31.628906 34.109375 -34.234375 C 32.921875 -36.847656 32.003906 -39.109375 31.359375 -41.015625 C 29.046875 -31.128906 27.300781 -23.367188 26.125 -17.734375 C 24.957031 -12.109375 24.375 -8.363281 24.375 -6.5 C 24.375 -5.320312 24.523438 -4.378906 24.828125 -3.671875 C 25.128906 -2.960938 25.320312 -2.265625 25.40625 -1.578125 C 24.75 -1.085938 23.957031 -0.648438 23.03125 -0.265625 C 22.101562 0.109375 21.09375 0.445312 20 0.75 C 18.90625 1.0625 17.769531 1.296875 16.59375 1.453125 C 15.414062 1.617188 14.257812 1.703125 13.125 1.703125 C 10.976562 1.703125 9.40625 1.328125 8.40625 0.578125 C 7.414062 -0.171875 6.882812 -1.335938 6.8125 -2.921875 C 6.8125 -3.972656 6.941406 -5.207031 7.203125 -6.625 C 7.460938 -8.039062 7.878906 -9.78125 8.453125 -11.84375 C 9.910156 -17.351562 11.367188 -22.789062 12.828125 -28.15625 C 14.285156 -33.53125 15.648438 -38.898438 16.921875 -44.265625 C 18.203125 -49.640625 19.347656 -55.039062 20.359375 -60.46875 C 21.367188 -65.894531 22.160156 -71.460938 22.734375 -77.171875 C 22.847656 -78.390625 22.800781 -79.460938 22.59375 -80.390625 C 22.394531 -81.328125 22.035156 -82.421875 21.515625 -83.671875 C 23.742188 -84.972656 25.804688 -85.882812 27.703125 -86.40625 C 29.609375 -86.9375 31.453125 -87.242188 33.234375 -87.328125 C 34.171875 -87.410156 35.09375 -87.347656 36 -87.140625 C 36.914062 -86.941406 37.675781 -86.535156 38.28125 -85.921875 C 38.925781 -85.273438 39.347656 -84.492188 39.546875 -83.578125 C 39.753906 -82.671875 39.820312 -81.769531 39.75 -80.875 C 39.707031 -80.507812 39.59375 -79.738281 39.40625 -78.5625 C 39.226562 -77.394531 38.984375 -75.9375 38.671875 -74.1875 C 38.367188 -72.445312 37.992188 -70.472656 37.546875 -68.265625 C 37.109375 -66.066406 36.632812 -63.738281 36.125 -61.28125 C 35.613281 -58.832031 35.046875 -56.320312 34.421875 -53.75 C 33.796875 -51.175781 33.160156 -48.65625 32.515625 -46.1875 C 33.078125 -46.75 33.679688 -47.265625 34.328125 -47.734375 C 34.984375 -48.203125 35.710938 -48.71875 36.515625 -49.28125 C 41.910156 -52.925781 46.488281 -56.25 50.25 -59.25 C 54.019531 -62.25 57.097656 -65.046875 59.484375 -67.640625 C 61.878906 -70.234375 63.632812 -72.671875 64.75 -74.953125 C 65.863281 -77.242188 66.460938 -79.484375 66.546875 -81.671875 C 66.546875 -82.359375 66.515625 -83.046875 66.453125 -83.734375 C 66.390625 -84.421875 66.257812 -85.109375 66.0625 -85.796875 C 67.914062 -86.242188 69.441406 -86.554688 70.640625 -86.734375 C 71.835938 -86.921875 72.738281 -87.015625 73.34375 -87.015625 C 75.53125 -87.015625 77.179688 -86.425781 78.296875 -85.25 C 79.410156 -84.082031 79.96875 -82.460938 79.96875 -80.390625 C 79.96875 -78.367188 79.410156 -76.117188 78.296875 -73.640625 C 77.179688 -71.171875 75.304688 -68.5 72.671875 -65.625 C 71.296875 -64.164062 69.75 -62.695312 68.03125 -61.21875 C 66.3125 -59.738281 64.546875 -58.28125 62.734375 -56.84375 C 60.929688 -55.40625 59.148438 -54.007812 57.390625 -52.65625 C 55.628906 -51.300781 54.03125 -50.003906 52.59375 -48.765625 C 51.15625 -47.523438 49.957031 -46.359375 49 -45.265625 C 48.050781 -44.171875 47.476562 -43.203125 47.28125 -42.359375 C 49.75 -37.410156 52.269531 -32.867188 54.84375 -28.734375 C 57.414062 -24.609375 59.957031 -21.054688 62.46875 -18.078125 C 64.976562 -15.097656 67.445312 -12.773438 69.875 -11.109375 C 72.3125 -9.453125 74.625 -8.625 76.8125 -8.625 Z M 76.8125 -8.625 "/></g></g></g><g fill="#182b5c" fill-opacity="1"><g transform="translate(247.019286, 739.362701)"><g><path d="M 27.046875 -35.0625 C 28.867188 -38.382812 30.929688 -41.5625 33.234375 -44.59375 C 35.546875 -47.632812 37.957031 -50.320312 40.46875 -52.65625 C 42.976562 -54.988281 45.5625 -56.84375 48.21875 -58.21875 C 50.875 -59.59375 53.476562 -60.28125 56.03125 -60.28125 C 58.539062 -60.28125 60.484375 -59.550781 61.859375 -58.09375 C 63.234375 -56.632812 63.921875 -54.328125 63.921875 -51.171875 C 63.890625 -49.179688 63.578125 -46.796875 62.984375 -44.015625 C 62.398438 -41.242188 61.753906 -38.285156 61.046875 -35.140625 C 60.335938 -32.003906 59.6875 -28.796875 59.09375 -25.515625 C 58.507812 -22.234375 58.21875 -19.078125 58.21875 -16.046875 C 58.21875 -15.472656 58.238281 -14.898438 58.28125 -14.328125 C 58.320312 -13.765625 58.390625 -13.25 58.484375 -12.78125 C 58.585938 -12.320312 58.726562 -11.941406 58.90625 -11.640625 C 59.09375 -11.335938 59.328125 -11.1875 59.609375 -11.1875 C 60.378906 -11.1875 61.21875 -11.5625 62.125 -12.3125 C 63.039062 -13.0625 64.023438 -13.984375 65.078125 -15.078125 C 66.859375 -16.972656 68.265625 -18.382812 69.296875 -19.3125 C 70.335938 -20.25 71.179688 -20.71875 71.828125 -20.71875 C 72.234375 -20.71875 72.4375 -20.414062 72.4375 -19.8125 C 72.4375 -18.476562 72.128906 -17.039062 71.515625 -15.5 C 70.910156 -13.957031 70.09375 -12.4375 69.0625 -10.9375 C 68.03125 -9.4375 66.84375 -7.988281 65.5 -6.59375 C 64.164062 -5.195312 62.757812 -3.972656 61.28125 -2.921875 C 59.800781 -1.867188 58.3125 -1.023438 56.8125 -0.390625 C 55.3125 0.234375 53.894531 0.546875 52.5625 0.546875 C 49.445312 0.546875 46.992188 -0.40625 45.203125 -2.3125 C 43.421875 -4.21875 42.53125 -7.175781 42.53125 -11.1875 C 42.53125 -11.945312 42.5625 -12.914062 42.625 -14.09375 C 42.6875 -15.269531 42.796875 -16.566406 42.953125 -17.984375 C 43.117188 -19.398438 43.34375 -20.925781 43.625 -22.5625 C 43.914062 -24.207031 44.300781 -25.90625 44.78125 -27.65625 C 45.800781 -31.21875 46.519531 -34.3125 46.9375 -36.9375 C 47.363281 -39.570312 47.617188 -41.722656 47.703125 -43.390625 C 47.703125 -43.710938 47.671875 -44.066406 47.609375 -44.453125 C 47.546875 -44.835938 47.441406 -45.203125 47.296875 -45.546875 C 47.160156 -45.890625 46.976562 -46.179688 46.75 -46.421875 C 46.53125 -46.671875 46.257812 -46.796875 45.9375 -46.796875 C 44.726562 -46.796875 43.179688 -45.800781 41.296875 -43.8125 C 39.410156 -41.832031 37.332031 -39.035156 35.0625 -35.421875 C 32.789062 -31.816406 30.378906 -27.484375 27.828125 -22.421875 C 25.273438 -17.359375 22.722656 -11.75 20.171875 -5.59375 C 19.722656 -4.582031 19.265625 -3.703125 18.796875 -2.953125 C 18.335938 -2.203125 17.753906 -1.570312 17.046875 -1.0625 C 16.335938 -0.550781 15.492188 -0.175781 14.515625 0.0625 C 13.546875 0.300781 12.332031 0.421875 10.875 0.421875 C 9.820312 0.421875 8.566406 0.347656 7.109375 0.203125 C 5.648438 0.0664062 4.03125 -0.140625 2.25 -0.421875 C 6.539062 -11.648438 10.039062 -23.359375 12.75 -35.546875 C 15.46875 -47.742188 17.640625 -60.222656 19.265625 -72.984375 C 19.265625 -73.222656 19.285156 -73.429688 19.328125 -73.609375 C 19.367188 -73.796875 19.390625 -73.972656 19.390625 -74.140625 C 19.390625 -75.066406 19.273438 -75.914062 19.046875 -76.6875 C 18.828125 -77.457031 18.492188 -78.328125 18.046875 -79.296875 C 20.359375 -80.597656 22.492188 -81.519531 24.453125 -82.0625 C 26.421875 -82.613281 28.316406 -82.890625 30.140625 -82.890625 C 31.765625 -82.890625 33.101562 -82.453125 34.15625 -81.578125 C 35.207031 -80.710938 35.734375 -79.382812 35.734375 -77.59375 C 35.734375 -77.4375 35.734375 -77.273438 35.734375 -77.109375 C 35.734375 -76.953125 35.691406 -76.789062 35.609375 -76.625 C 35.523438 -75.9375 35.28125 -74.335938 34.875 -71.828125 C 34.46875 -69.316406 33.890625 -66.175781 33.140625 -62.40625 C 32.398438 -58.632812 31.507812 -54.398438 30.46875 -49.703125 C 29.4375 -45.003906 28.296875 -40.125 27.046875 -35.0625 Z M 27.046875 -35.0625 "/></g></g></g><g fill="#182b5c" fill-opacity="1"><g transform="translate(312.405788, 739.362701)"><g><path d="M 16.34375 -48.609375 C 19.832031 -52.503906 23.722656 -55.5625 28.015625 -57.78125 C 32.304688 -60.007812 36.90625 -61.125 41.8125 -61.125 C 44.84375 -61.125 47.613281 -60.664062 50.125 -59.75 C 52.644531 -58.84375 54.804688 -57.539062 56.609375 -55.84375 C 58.410156 -54.144531 59.804688 -52.054688 60.796875 -49.578125 C 61.785156 -47.109375 62.28125 -44.335938 62.28125 -41.265625 C 62.28125 -37.734375 61.84375 -34.242188 60.96875 -30.796875 C 60.101562 -27.359375 58.878906 -24.066406 57.296875 -20.921875 C 55.722656 -17.785156 53.832031 -14.867188 51.625 -12.171875 C 49.414062 -9.484375 46.960938 -7.15625 44.265625 -5.1875 C 41.578125 -3.226562 38.679688 -1.691406 35.578125 -0.578125 C 32.484375 0.535156 29.273438 1.09375 25.953125 1.09375 C 22.867188 1.09375 20.070312 0.617188 17.5625 -0.328125 C 15.050781 -1.285156 12.894531 -2.65625 11.09375 -4.4375 C 9.289062 -6.21875 7.898438 -8.394531 6.921875 -10.96875 C 5.953125 -13.539062 5.46875 -16.445312 5.46875 -19.6875 C 5.46875 -25.15625 6.390625 -30.300781 8.234375 -35.125 C 10.078125 -39.945312 12.78125 -44.441406 16.34375 -48.609375 Z M 45.640625 -41.265625 C 45.640625 -42.878906 45.515625 -44.394531 45.265625 -45.8125 C 45.023438 -47.238281 44.617188 -48.476562 44.046875 -49.53125 C 43.484375 -50.582031 42.734375 -51.398438 41.796875 -51.984375 C 40.867188 -52.578125 39.738281 -52.875 38.40625 -52.875 C 36.738281 -52.875 35.175781 -52.328125 33.71875 -51.234375 C 32.257812 -50.140625 30.921875 -48.671875 29.703125 -46.828125 C 28.492188 -44.984375 27.398438 -42.875 26.421875 -40.5 C 25.453125 -38.132812 24.632812 -35.675781 23.96875 -33.125 C 23.300781 -30.570312 22.796875 -28.023438 22.453125 -25.484375 C 22.109375 -22.953125 21.9375 -20.613281 21.9375 -18.46875 C 21.9375 -16.8125 22.066406 -15.28125 22.328125 -13.875 C 22.597656 -12.476562 23.023438 -11.273438 23.609375 -10.265625 C 24.191406 -9.253906 24.957031 -8.460938 25.90625 -7.890625 C 26.863281 -7.328125 28.007812 -7.046875 29.34375 -7.046875 C 30.96875 -7.046875 32.507812 -7.59375 33.96875 -8.6875 C 35.425781 -9.78125 36.753906 -11.226562 37.953125 -13.03125 C 39.148438 -14.832031 40.222656 -16.914062 41.171875 -19.28125 C 42.117188 -21.65625 42.925781 -24.109375 43.59375 -26.640625 C 44.269531 -29.171875 44.78125 -31.703125 45.125 -34.234375 C 45.46875 -36.773438 45.640625 -39.117188 45.640625 -41.265625 Z M 45.640625 -41.265625 "/></g></g></g><g fill="#182b5c" fill-opacity="1"><g transform="translate(372.323159, 739.362701)"><g><path d="M 34.9375 -87.8125 C 36.6875 -87.8125 37.992188 -87.535156 38.859375 -86.984375 C 39.734375 -86.441406 40.210938 -85.742188 40.296875 -84.890625 C 40.296875 -84.691406 40.296875 -84.488281 40.296875 -84.28125 C 40.296875 -84.082031 40.253906 -83.84375 40.171875 -83.5625 C 40.046875 -83.03125 39.867188 -82.5 39.640625 -81.96875 C 39.421875 -81.445312 39.148438 -80.859375 38.828125 -80.203125 C 38.503906 -79.554688 38.085938 -78.816406 37.578125 -77.984375 C 37.078125 -77.160156 36.460938 -76.179688 35.734375 -75.046875 C 34.515625 -73.140625 33.539062 -71.671875 32.8125 -70.640625 C 32.082031 -69.609375 31.363281 -68.816406 30.65625 -68.265625 C 29.945312 -67.722656 29.125 -67.316406 28.1875 -67.046875 C 27.257812 -66.785156 25.988281 -66.492188 24.375 -66.171875 C 23.195312 -65.929688 22.234375 -65.867188 21.484375 -65.984375 C 20.734375 -66.109375 20.132812 -66.34375 19.6875 -66.6875 C 19.238281 -67.03125 18.921875 -67.445312 18.734375 -67.9375 C 18.554688 -68.425781 18.46875 -68.894531 18.46875 -69.34375 C 18.46875 -70.144531 18.566406 -71.125 18.765625 -72.28125 C 18.972656 -73.4375 19.195312 -74.648438 19.4375 -75.921875 C 19.6875 -77.203125 19.898438 -78.5 20.078125 -79.8125 C 20.265625 -81.132812 20.335938 -82.34375 20.296875 -83.4375 C 20.296875 -83.71875 20.222656 -83.976562 20.078125 -84.21875 C 19.941406 -84.46875 19.8125 -84.734375 19.6875 -85.015625 C 22 -85.898438 24.453125 -86.585938 27.046875 -87.078125 C 29.640625 -87.566406 32.269531 -87.8125 34.9375 -87.8125 Z M 29.59375 -15.015625 C 34.5 -20.398438 36.953125 -21.914062 36.953125 -19.5625 C 36.953125 -18.394531 36.363281 -16.390625 35.1875 -13.546875 C 34.375 -11.722656 33.257812 -9.960938 31.84375 -8.265625 C 30.425781 -6.566406 28.863281 -5.046875 27.15625 -3.703125 C 25.457031 -2.367188 23.726562 -1.304688 21.96875 -0.515625 C 20.207031 0.273438 18.597656 0.671875 17.140625 0.671875 C 14.140625 0.671875 11.773438 -0.164062 10.046875 -1.84375 C 8.328125 -3.53125 7.367188 -6.113281 7.171875 -9.59375 C 7.085938 -10.207031 7.054688 -11.097656 7.078125 -12.265625 C 7.097656 -13.441406 7.1875 -14.820312 7.34375 -16.40625 C 7.507812 -17.988281 7.753906 -19.726562 8.078125 -21.625 C 8.398438 -23.53125 8.847656 -25.539062 9.421875 -27.65625 C 10.347656 -31.050781 11.082031 -34.285156 11.625 -37.359375 C 12.175781 -40.441406 12.675781 -43.019531 13.125 -45.09375 C 13.332031 -46.226562 13.472656 -47.3125 13.546875 -48.34375 C 13.628906 -49.375 13.671875 -50.316406 13.671875 -51.171875 C 13.671875 -53.273438 13.101562 -55.132812 11.96875 -56.75 C 13.957031 -57.476562 15.882812 -58.054688 17.75 -58.484375 C 19.613281 -58.910156 21.4375 -59.125 23.21875 -59.125 C 24.144531 -59.125 25.132812 -59 26.1875 -58.75 C 27.238281 -58.507812 28.09375 -58.046875 28.75 -57.359375 C 30.125 -55.941406 30.585938 -54 30.140625 -51.53125 C 29.941406 -50.601562 29.757812 -49.691406 29.59375 -48.796875 C 29.425781 -47.898438 29.179688 -46.945312 28.859375 -45.9375 C 28.453125 -44.363281 28.023438 -42.765625 27.578125 -41.140625 C 27.140625 -39.515625 26.726562 -37.960938 26.34375 -36.484375 C 25.957031 -35.003906 25.601562 -33.65625 25.28125 -32.4375 C 24.957031 -31.226562 24.710938 -30.238281 24.546875 -29.46875 C 24.304688 -28.5 24.082031 -27.394531 23.875 -26.15625 C 23.675781 -24.925781 23.503906 -23.679688 23.359375 -22.421875 C 23.222656 -21.171875 23.101562 -19.976562 23 -18.84375 C 22.894531 -17.707031 22.84375 -16.734375 22.84375 -15.921875 C 22.84375 -15.359375 22.851562 -14.789062 22.875 -14.21875 C 22.894531 -13.65625 22.945312 -13.140625 23.03125 -12.671875 C 23.113281 -12.203125 23.234375 -11.828125 23.390625 -11.546875 C 23.554688 -11.265625 23.78125 -11.125 24.0625 -11.125 C 24.75 -11.125 25.554688 -11.507812 26.484375 -12.28125 C 27.421875 -13.050781 28.457031 -13.960938 29.59375 -15.015625 Z M 29.59375 -15.015625 "/></g></g></g><g fill="#182b5c" fill-opacity="1"><g transform="translate(405.441787, 739.362701)"><g/></g></g><g fill="#182b5c" fill-opacity="1"><g transform="translate(436.129689, 739.362701)"><g><path d="M 33.78125 -75.359375 C 33.007812 -75.359375 32.269531 -75.375 31.5625 -75.40625 C 30.851562 -75.445312 30.113281 -75.46875 29.34375 -75.46875 C 26.1875 -75.46875 23.523438 -75.144531 21.359375 -74.5 C 19.191406 -73.851562 17.296875 -73.101562 15.671875 -72.25 C 15.148438 -71.925781 14.632812 -71.679688 14.125 -71.515625 C 13.625 -71.359375 13.210938 -71.28125 12.890625 -71.28125 C 12.804688 -71.96875 12.742188 -72.6875 12.703125 -73.4375 C 12.660156 -74.1875 12.640625 -74.863281 12.640625 -75.46875 C 12.640625 -79.4375 13.582031 -82.3125 15.46875 -84.09375 C 17.351562 -85.882812 20.140625 -86.78125 23.828125 -86.78125 C 29.578125 -86.78125 35.234375 -86.726562 40.796875 -86.625 C 46.367188 -86.519531 51.890625 -86.46875 57.359375 -86.46875 C 59.546875 -86.46875 61.5 -86.554688 63.21875 -86.734375 C 64.945312 -86.921875 66.53125 -87.144531 67.96875 -87.40625 C 69.40625 -87.675781 70.722656 -87.941406 71.921875 -88.203125 C 73.117188 -88.460938 74.300781 -88.695312 75.46875 -88.90625 C 75.550781 -88.695312 75.613281 -88.453125 75.65625 -88.171875 C 75.695312 -87.890625 75.71875 -87.566406 75.71875 -87.203125 C 75.59375 -82.984375 74.5 -79.898438 72.4375 -77.953125 C 70.375 -76.015625 67.703125 -75.046875 64.421875 -75.046875 C 63.691406 -75.046875 62.828125 -75.066406 61.828125 -75.109375 C 60.835938 -75.148438 59.804688 -75.203125 58.734375 -75.265625 C 57.660156 -75.328125 56.625 -75.375 55.625 -75.40625 C 54.632812 -75.445312 53.796875 -75.46875 53.109375 -75.46875 C 52.097656 -75.46875 51.304688 -75.347656 50.734375 -75.109375 C 50.171875 -74.867188 49.789062 -74.320312 49.59375 -73.46875 C 49.144531 -71.644531 48.632812 -69.515625 48.0625 -67.078125 C 47.5 -64.648438 46.882812 -62.03125 46.21875 -59.21875 C 45.550781 -56.40625 44.859375 -53.4375 44.140625 -50.3125 C 43.429688 -47.195312 42.710938 -44.046875 41.984375 -40.859375 C 41.253906 -37.679688 40.535156 -34.519531 39.828125 -31.375 C 39.117188 -28.238281 38.460938 -25.210938 37.859375 -22.296875 C 37.285156 -19.628906 36.785156 -17.023438 36.359375 -14.484375 C 35.941406 -11.953125 35.734375 -9.65625 35.734375 -7.59375 C 35.734375 -6.945312 35.769531 -6.367188 35.84375 -5.859375 C 35.925781 -5.359375 36.03125 -4.875 36.15625 -4.40625 C 36.28125 -3.9375 36.429688 -3.457031 36.609375 -2.96875 C 36.796875 -2.488281 36.988281 -1.945312 37.1875 -1.34375 C 36.257812 -0.769531 35.238281 -0.28125 34.125 0.125 C 33.007812 0.53125 31.90625 0.851562 30.8125 1.09375 C 29.71875 1.332031 28.660156 1.515625 27.640625 1.640625 C 26.628906 1.765625 25.78125 1.828125 25.09375 1.828125 C 20.394531 1.828125 18.046875 -0.015625 18.046875 -3.703125 C 18.046875 -4.960938 18.164062 -6.53125 18.40625 -8.40625 C 18.65625 -10.289062 19.125 -12.515625 19.8125 -15.078125 C 19.9375 -15.554688 20.207031 -16.664062 20.625 -18.40625 C 21.050781 -20.15625 21.566406 -22.304688 22.171875 -24.859375 C 22.785156 -27.410156 23.46875 -30.242188 24.21875 -33.359375 C 24.96875 -36.484375 25.726562 -39.6875 26.5 -42.96875 C 27.269531 -46.25 28.023438 -49.488281 28.765625 -52.6875 C 29.515625 -55.882812 30.191406 -58.8125 30.796875 -61.46875 C 31.410156 -64.125 31.941406 -66.421875 32.390625 -68.359375 C 32.835938 -70.304688 33.117188 -71.644531 33.234375 -72.375 C 33.359375 -72.9375 33.460938 -73.453125 33.546875 -73.921875 C 33.628906 -74.390625 33.707031 -74.867188 33.78125 -75.359375 Z M 33.78125 -75.359375 "/></g></g></g><g fill="#182b5c" fill-opacity="1"><g transform="translate(485.04803, 739.362701)"><g><path d="M 48.609375 -15.796875 C 52.660156 -20.054688 55.160156 -22.019531 56.109375 -21.6875 C 57.066406 -21.363281 56.429688 -18.914062 54.203125 -14.34375 C 53.273438 -12.4375 52.019531 -10.59375 50.4375 -8.8125 C 48.851562 -7.03125 47.140625 -5.445312 45.296875 -4.0625 C 43.453125 -2.6875 41.597656 -1.570312 39.734375 -0.71875 C 37.878906 0.125 36.203125 0.546875 34.703125 0.546875 C 33.117188 0.546875 31.695312 0.34375 30.4375 -0.0625 C 29.1875 -0.46875 28.132812 -1.101562 27.28125 -1.96875 C 26.4375 -2.84375 25.820312 -3.945312 25.4375 -5.28125 C 25.050781 -6.625 24.976562 -8.226562 25.21875 -10.09375 C 25.34375 -11.21875 25.546875 -12.46875 25.828125 -13.84375 C 26.109375 -15.226562 26.429688 -16.617188 26.796875 -18.015625 C 27.160156 -19.410156 27.535156 -20.765625 27.921875 -22.078125 C 28.304688 -23.398438 28.660156 -24.546875 28.984375 -25.515625 C 29.191406 -26.210938 29.484375 -27.144531 29.859375 -28.3125 C 30.242188 -29.488281 30.671875 -30.796875 31.140625 -32.234375 C 31.609375 -33.671875 32.09375 -35.140625 32.59375 -36.640625 C 33.101562 -38.140625 33.582031 -39.554688 34.03125 -40.890625 C 34.476562 -42.234375 34.851562 -43.398438 35.15625 -44.390625 C 35.457031 -45.378906 35.671875 -46.078125 35.796875 -46.484375 C 36.160156 -47.617188 36.378906 -48.445312 36.453125 -48.96875 C 36.535156 -49.5 36.210938 -49.707031 35.484375 -49.59375 C 35.242188 -49.550781 34.796875 -49.476562 34.140625 -49.375 C 33.492188 -49.269531 32.722656 -49.175781 31.828125 -49.09375 C 30.941406 -49.019531 29.960938 -48.941406 28.890625 -48.859375 C 27.816406 -48.773438 26.734375 -48.734375 25.640625 -48.734375 C 25.234375 -47.597656 24.71875 -46.195312 24.09375 -44.53125 C 23.46875 -42.875 22.628906 -41.132812 21.578125 -39.3125 C 20.554688 -37.488281 19.4375 -35.734375 18.21875 -34.046875 C 17.007812 -32.367188 15.78125 -31.066406 14.53125 -30.140625 C 13.101562 -29.085938 11.578125 -28.359375 9.953125 -27.953125 C 8.335938 -27.546875 6.757812 -27.628906 5.21875 -28.203125 C 6.675781 -29.898438 7.898438 -31.535156 8.890625 -33.109375 C 9.890625 -34.691406 10.722656 -36.289062 11.390625 -37.90625 C 12.054688 -39.53125 12.550781 -41.222656 12.875 -42.984375 C 13.207031 -44.753906 13.429688 -46.671875 13.546875 -48.734375 C 11.804688 -49.378906 10.5625 -50.289062 9.8125 -51.46875 C 9.0625 -52.644531 8.6875 -53.898438 8.6875 -55.234375 C 8.6875 -56.578125 8.957031 -57.9375 9.5 -59.3125 C 10.050781 -60.6875 10.742188 -61.910156 11.578125 -62.984375 C 12.410156 -64.054688 13.3125 -64.894531 14.28125 -65.5 C 15.25 -66.113281 16.117188 -66.335938 16.890625 -66.171875 C 16.847656 -65.691406 16.71875 -65.097656 16.5 -64.390625 C 16.28125 -63.679688 16.175781 -62.976562 16.1875 -62.28125 C 16.207031 -61.59375 16.5 -60.945312 17.0625 -60.34375 C 17.632812 -59.738281 18.722656 -59.300781 20.328125 -59.03125 C 21.929688 -58.769531 24.179688 -58.707031 27.078125 -58.84375 C 29.972656 -58.988281 33.75 -59.46875 38.40625 -60.28125 C 39.332031 -60.476562 40.472656 -60.707031 41.828125 -60.96875 C 43.191406 -61.238281 44.539062 -61.3125 45.875 -61.1875 C 47.21875 -61.070312 48.425781 -60.664062 49.5 -59.96875 C 50.570312 -59.28125 51.289062 -58.109375 51.65625 -56.453125 C 52.0625 -54.546875 52.097656 -52.585938 51.765625 -50.578125 C 51.441406 -48.578125 50.957031 -46.5625 50.3125 -44.53125 C 49.664062 -42.507812 48.9375 -40.492188 48.125 -38.484375 C 47.3125 -36.484375 46.625 -34.550781 46.0625 -32.6875 C 45.09375 -29.488281 44.160156 -26.550781 43.265625 -23.875 C 42.378906 -21.207031 41.851562 -18.835938 41.6875 -16.765625 C 41.644531 -16.160156 41.613281 -15.546875 41.59375 -14.921875 C 41.570312 -14.296875 41.582031 -13.738281 41.625 -13.25 C 41.664062 -12.757812 41.765625 -12.363281 41.921875 -12.0625 C 42.085938 -11.757812 42.332031 -11.628906 42.65625 -11.671875 C 43.300781 -11.710938 44.128906 -12.144531 45.140625 -12.96875 C 46.160156 -13.800781 47.316406 -14.742188 48.609375 -15.796875 Z M 48.609375 -15.796875 "/></g></g></g><g fill="#182b5c" fill-opacity="1"><g transform="translate(538.706283, 739.362701)"><g><path d="M 34.9375 -87.8125 C 36.6875 -87.8125 37.992188 -87.535156 38.859375 -86.984375 C 39.734375 -86.441406 40.210938 -85.742188 40.296875 -84.890625 C 40.296875 -84.691406 40.296875 -84.488281 40.296875 -84.28125 C 40.296875 -84.082031 40.253906 -83.84375 40.171875 -83.5625 C 40.046875 -83.03125 39.867188 -82.5 39.640625 -81.96875 C 39.421875 -81.445312 39.148438 -80.859375 38.828125 -80.203125 C 38.503906 -79.554688 38.085938 -78.816406 37.578125 -77.984375 C 37.078125 -77.160156 36.460938 -76.179688 35.734375 -75.046875 C 34.515625 -73.140625 33.539062 -71.671875 32.8125 -70.640625 C 32.082031 -69.609375 31.363281 -68.816406 30.65625 -68.265625 C 29.945312 -67.722656 29.125 -67.316406 28.1875 -67.046875 C 27.257812 -66.785156 25.988281 -66.492188 24.375 -66.171875 C 23.195312 -65.929688 22.234375 -65.867188 21.484375 -65.984375 C 20.734375 -66.109375 20.132812 -66.34375 19.6875 -66.6875 C 19.238281 -67.03125 18.921875 -67.445312 18.734375 -67.9375 C 18.554688 -68.425781 18.46875 -68.894531 18.46875 -69.34375 C 18.46875 -70.144531 18.566406 -71.125 18.765625 -72.28125 C 18.972656 -73.4375 19.195312 -74.648438 19.4375 -75.921875 C 19.6875 -77.203125 19.898438 -78.5 20.078125 -79.8125 C 20.265625 -81.132812 20.335938 -82.34375 20.296875 -83.4375 C 20.296875 -83.71875 20.222656 -83.976562 20.078125 -84.21875 C 19.941406 -84.46875 19.8125 -84.734375 19.6875 -85.015625 C 22 -85.898438 24.453125 -86.585938 27.046875 -87.078125 C 29.640625 -87.566406 32.269531 -87.8125 34.9375 -87.8125 Z M 29.59375 -15.015625 C 34.5 -20.398438 36.953125 -21.914062 36.953125 -19.5625 C 36.953125 -18.394531 36.363281 -16.390625 35.1875 -13.546875 C 34.375 -11.722656 33.257812 -9.960938 31.84375 -8.265625 C 30.425781 -6.566406 28.863281 -5.046875 27.15625 -3.703125 C 25.457031 -2.367188 23.726562 -1.304688 21.96875 -0.515625 C 20.207031 0.273438 18.597656 0.671875 17.140625 0.671875 C 14.140625 0.671875 11.773438 -0.164062 10.046875 -1.84375 C 8.328125 -3.53125 7.367188 -6.113281 7.171875 -9.59375 C 7.085938 -10.207031 7.054688 -11.097656 7.078125 -12.265625 C 7.097656 -13.441406 7.1875 -14.820312 7.34375 -16.40625 C 7.507812 -17.988281 7.753906 -19.726562 8.078125 -21.625 C 8.398438 -23.53125 8.847656 -25.539062 9.421875 -27.65625 C 10.347656 -31.050781 11.082031 -34.285156 11.625 -37.359375 C 12.175781 -40.441406 12.675781 -43.019531 13.125 -45.09375 C 13.332031 -46.226562 13.472656 -47.3125 13.546875 -48.34375 C 13.628906 -49.375 13.671875 -50.316406 13.671875 -51.171875 C 13.671875 -53.273438 13.101562 -55.132812 11.96875 -56.75 C 13.957031 -57.476562 15.882812 -58.054688 17.75 -58.484375 C 19.613281 -58.910156 21.4375 -59.125 23.21875 -59.125 C 24.144531 -59.125 25.132812 -59 26.1875 -58.75 C 27.238281 -58.507812 28.09375 -58.046875 28.75 -57.359375 C 30.125 -55.941406 30.585938 -54 30.140625 -51.53125 C 29.941406 -50.601562 29.757812 -49.691406 29.59375 -48.796875 C 29.425781 -47.898438 29.179688 -46.945312 28.859375 -45.9375 C 28.453125 -44.363281 28.023438 -42.765625 27.578125 -41.140625 C 27.140625 -39.515625 26.726562 -37.960938 26.34375 -36.484375 C 25.957031 -35.003906 25.601562 -33.65625 25.28125 -32.4375 C 24.957031 -31.226562 24.710938 -30.238281 24.546875 -29.46875 C 24.304688 -28.5 24.082031 -27.394531 23.875 -26.15625 C 23.675781 -24.925781 23.503906 -23.679688 23.359375 -22.421875 C 23.222656 -21.171875 23.101562 -19.976562 23 -18.84375 C 22.894531 -17.707031 22.84375 -16.734375 22.84375 -15.921875 C 22.84375 -15.359375 22.851562 -14.789062 22.875 -14.21875 C 22.894531 -13.65625 22.945312 -13.140625 23.03125 -12.671875 C 23.113281 -12.203125 23.234375 -11.828125 23.390625 -11.546875 C 23.554688 -11.265625 23.78125 -11.125 24.0625 -11.125 C 24.75 -11.125 25.554688 -11.507812 26.484375 -12.28125 C 27.421875 -13.050781 28.457031 -13.960938 29.59375 -15.015625 Z M 29.59375 -15.015625 "/></g></g></g><g fill="#182b5c" fill-opacity="1"><g transform="translate(571.824934, 739.362701)"><g/></g></g><g fill="#182b5c" fill-opacity="1"><g transform="translate(602.512813, 739.362701)"><g><path d="M 14.21875 -21.515625 C 13.976562 -20.253906 14.0625 -18.957031 14.46875 -17.625 C 14.90625 -15.925781 15.617188 -14.394531 16.609375 -13.03125 C 17.609375 -11.675781 18.816406 -10.539062 20.234375 -9.625 C 21.648438 -8.71875 23.238281 -8.019531 25 -7.53125 C 26.769531 -7.050781 28.625 -6.8125 30.5625 -6.8125 C 32.957031 -6.8125 35.113281 -7.113281 37.03125 -7.71875 C 38.957031 -8.320312 40.609375 -9.210938 41.984375 -10.390625 C 43.367188 -11.566406 44.425781 -13.015625 45.15625 -14.734375 C 45.882812 -16.453125 46.25 -18.445312 46.25 -20.71875 C 46.25 -23.269531 45.640625 -25.554688 44.421875 -27.578125 C 43.203125 -29.609375 41.460938 -31.535156 39.203125 -33.359375 C 37.003906 -35.179688 34.710938 -36.921875 32.328125 -38.578125 C 29.941406 -40.242188 27.753906 -42.03125 25.765625 -43.9375 C 23.773438 -45.84375 22.132812 -47.96875 20.84375 -50.3125 C 19.550781 -52.664062 18.90625 -55.460938 18.90625 -58.703125 C 18.90625 -63.117188 19.816406 -67.128906 21.640625 -70.734375 C 23.460938 -74.335938 25.910156 -77.425781 28.984375 -80 C 32.066406 -82.570312 35.625 -84.554688 39.65625 -85.953125 C 43.6875 -87.347656 47.890625 -88.046875 52.265625 -88.046875 C 54.566406 -88.046875 56.757812 -87.90625 58.84375 -87.625 C 60.9375 -87.34375 62.78125 -86.867188 64.375 -86.203125 C 65.976562 -85.535156 67.242188 -84.644531 68.171875 -83.53125 C 69.109375 -82.414062 69.578125 -81.003906 69.578125 -79.296875 C 69.578125 -78.328125 69.351562 -77.351562 68.90625 -76.375 C 68.46875 -75.40625 67.890625 -74.492188 67.171875 -73.640625 C 66.460938 -72.796875 65.660156 -72.03125 64.765625 -71.34375 C 63.878906 -70.65625 63.015625 -70.109375 62.171875 -69.703125 C 61.273438 -71.117188 60.335938 -72.394531 59.359375 -73.53125 C 58.390625 -74.664062 57.304688 -75.625 56.109375 -76.40625 C 54.921875 -77.195312 53.597656 -77.804688 52.140625 -78.234375 C 50.679688 -78.660156 49.019531 -78.875 47.15625 -78.875 C 45.164062 -78.875 43.359375 -78.628906 41.734375 -78.140625 C 40.117188 -77.660156 38.734375 -76.941406 37.578125 -75.984375 C 36.429688 -75.035156 35.539062 -73.851562 34.90625 -72.4375 C 34.28125 -71.019531 33.96875 -69.359375 33.96875 -67.453125 C 33.96875 -65.753906 34.238281 -64.242188 34.78125 -62.921875 C 35.332031 -61.609375 36.316406 -60.210938 37.734375 -58.734375 C 39.148438 -57.253906 41.082031 -55.550781 43.53125 -53.625 C 45.988281 -51.695312 49.101562 -49.273438 52.875 -46.359375 C 54.289062 -45.066406 55.570312 -43.75 56.71875 -42.40625 C 57.875 -41.070312 58.859375 -39.644531 59.671875 -38.125 C 60.484375 -36.613281 61.101562 -35.003906 61.53125 -33.296875 C 61.957031 -31.597656 62.171875 -29.753906 62.171875 -27.765625 C 62.171875 -24.734375 61.671875 -21.878906 60.671875 -19.203125 C 59.679688 -16.523438 58.304688 -14.0625 56.546875 -11.8125 C 54.785156 -9.570312 52.726562 -7.554688 50.375 -5.765625 C 48.03125 -3.984375 45.507812 -2.472656 42.8125 -1.234375 C 40.113281 -0.00390625 37.296875 0.929688 34.359375 1.578125 C 31.421875 2.222656 28.515625 2.546875 25.640625 2.546875 C 23.253906 2.546875 20.753906 2.300781 18.140625 1.8125 C 15.523438 1.332031 13.125 0.597656 10.9375 -0.390625 C 8.75 -1.390625 6.9375 -2.632812 5.5 -4.125 C 4.0625 -5.625 3.34375 -7.390625 3.34375 -9.421875 C 3.34375 -10.554688 3.601562 -11.726562 4.125 -12.9375 C 4.65625 -14.15625 5.394531 -15.320312 6.34375 -16.4375 C 7.300781 -17.550781 8.445312 -18.550781 9.78125 -19.4375 C 11.113281 -20.332031 12.59375 -21.023438 14.21875 -21.515625 Z M 14.21875 -21.515625 "/></g></g></g><g fill="#182b5c" fill-opacity="1"><g transform="translate(667.170098, 739.362701)"><g><path d="M 16.34375 -48.609375 C 19.832031 -52.503906 23.722656 -55.5625 28.015625 -57.78125 C 32.304688 -60.007812 36.90625 -61.125 41.8125 -61.125 C 44.84375 -61.125 47.613281 -60.664062 50.125 -59.75 C 52.644531 -58.84375 54.804688 -57.539062 56.609375 -55.84375 C 58.410156 -54.144531 59.804688 -52.054688 60.796875 -49.578125 C 61.785156 -47.109375 62.28125 -44.335938 62.28125 -41.265625 C 62.28125 -37.734375 61.84375 -34.242188 60.96875 -30.796875 C 60.101562 -27.359375 58.878906 -24.066406 57.296875 -20.921875 C 55.722656 -17.785156 53.832031 -14.867188 51.625 -12.171875 C 49.414062 -9.484375 46.960938 -7.15625 44.265625 -5.1875 C 41.578125 -3.226562 38.679688 -1.691406 35.578125 -0.578125 C 32.484375 0.535156 29.273438 1.09375 25.953125 1.09375 C 22.867188 1.09375 20.070312 0.617188 17.5625 -0.328125 C 15.050781 -1.285156 12.894531 -2.65625 11.09375 -4.4375 C 9.289062 -6.21875 7.898438 -8.394531 6.921875 -10.96875 C 5.953125 -13.539062 5.46875 -16.445312 5.46875 -19.6875 C 5.46875 -25.15625 6.390625 -30.300781 8.234375 -35.125 C 10.078125 -39.945312 12.78125 -44.441406 16.34375 -48.609375 Z M 45.640625 -41.265625 C 45.640625 -42.878906 45.515625 -44.394531 45.265625 -45.8125 C 45.023438 -47.238281 44.617188 -48.476562 44.046875 -49.53125 C 43.484375 -50.582031 42.734375 -51.398438 41.796875 -51.984375 C 40.867188 -52.578125 39.738281 -52.875 38.40625 -52.875 C 36.738281 -52.875 35.175781 -52.328125 33.71875 -51.234375 C 32.257812 -50.140625 30.921875 -48.671875 29.703125 -46.828125 C 28.492188 -44.984375 27.398438 -42.875 26.421875 -40.5 C 25.453125 -38.132812 24.632812 -35.675781 23.96875 -33.125 C 23.300781 -30.570312 22.796875 -28.023438 22.453125 -25.484375 C 22.109375 -22.953125 21.9375 -20.613281 21.9375 -18.46875 C 21.9375 -16.8125 22.066406 -15.28125 22.328125 -13.875 C 22.597656 -12.476562 23.023438 -11.273438 23.609375 -10.265625 C 24.191406 -9.253906 24.957031 -8.460938 25.90625 -7.890625 C 26.863281 -7.328125 28.007812 -7.046875 29.34375 -7.046875 C 30.96875 -7.046875 32.507812 -7.59375 33.96875 -8.6875 C 35.425781 -9.78125 36.753906 -11.226562 37.953125 -13.03125 C 39.148438 -14.832031 40.222656 -16.914062 41.171875 -19.28125 C 42.117188 -21.65625 42.925781 -24.109375 43.59375 -26.640625 C 44.269531 -29.171875 44.78125 -31.703125 45.125 -34.234375 C 45.46875 -36.773438 45.640625 -39.117188 45.640625 -41.265625 Z M 45.640625 -41.265625 "/></g></g></g><g transform="matrix(1, 0, 0, 1, 310, 761)"><g clip-path="url(#089a156d5f)"><g fill="#182b5c" fill-opacity="1"><g transform="translate(1.517705, 36.281563)"><g><path d="M 3.3125 0 L 3.3125 -27.78125 L 24.390625 -27.78125 L 24.390625 -24.71875 L 7.078125 -24.71875 L 7.078125 -15.796875 L 23.21875 -15.796875 L 23.21875 -12.765625 L 7.078125 -12.765625 L 7.078125 -3.078125 L 25.203125 -3.078125 L 25.203125 0 Z M 3.3125 0 "/></g></g></g><g fill="#182b5c" fill-opacity="1"><g transform="translate(40.614917, 36.281563)"><g><path d="M 16.1875 -3.4375 C 15.53125 -2.0625 14.660156 -1.078125 13.578125 -0.484375 C 12.492188 0.0976562 11.148438 0.390625 9.546875 0.390625 C 6.847656 0.390625 4.863281 -0.515625 3.59375 -2.328125 C 2.332031 -4.140625 1.703125 -6.890625 1.703125 -10.578125 C 1.703125 -18.015625 4.316406 -21.734375 9.546875 -21.734375 C 11.160156 -21.734375 12.503906 -21.4375 13.578125 -20.84375 C 14.660156 -20.25 15.53125 -19.3125 16.1875 -18.03125 L 16.234375 -18.03125 L 16.1875 -20.40625 L 16.1875 -29.265625 L 19.734375 -29.265625 L 19.734375 -4.390625 C 19.734375 -2.171875 19.773438 -0.707031 19.859375 0 L 16.46875 0 C 16.425781 -0.207031 16.378906 -0.691406 16.328125 -1.453125 C 16.285156 -2.222656 16.265625 -2.882812 16.265625 -3.4375 Z M 5.421875 -10.6875 C 5.421875 -7.707031 5.816406 -5.570312 6.609375 -4.28125 C 7.398438 -2.988281 8.679688 -2.34375 10.453125 -2.34375 C 12.460938 -2.34375 13.921875 -3.039062 14.828125 -4.4375 C 15.734375 -5.832031 16.1875 -7.992188 16.1875 -10.921875 C 16.1875 -13.753906 15.734375 -15.828125 14.828125 -17.140625 C 13.921875 -18.453125 12.472656 -19.109375 10.484375 -19.109375 C 8.703125 -19.109375 7.410156 -18.445312 6.609375 -17.125 C 5.816406 -15.800781 5.421875 -13.65625 5.421875 -10.6875 Z M 5.421875 -10.6875 "/></g></g></g><g fill="#182b5c" fill-opacity="1"><g transform="translate(75.235585, 36.281563)"><g><path d="M 6.1875 -21.34375 L 6.1875 -7.8125 C 6.1875 -6.40625 6.320312 -5.3125 6.59375 -4.53125 C 6.875 -3.757812 7.316406 -3.203125 7.921875 -2.859375 C 8.523438 -2.515625 9.414062 -2.34375 10.59375 -2.34375 C 12.300781 -2.34375 13.644531 -2.925781 14.625 -4.09375 C 15.613281 -5.269531 16.109375 -6.894531 16.109375 -8.96875 L 16.109375 -21.34375 L 19.65625 -21.34375 L 19.65625 -4.5625 C 19.65625 -2.070312 19.695312 -0.550781 19.78125 0 L 16.421875 0 C 16.410156 -0.0625 16.398438 -0.238281 16.390625 -0.53125 C 16.378906 -0.820312 16.363281 -1.15625 16.34375 -1.53125 C 16.320312 -1.90625 16.296875 -2.613281 16.265625 -3.65625 L 16.21875 -3.65625 C 15.394531 -2.175781 14.445312 -1.128906 13.375 -0.515625 C 12.3125 0.0859375 10.984375 0.390625 9.390625 0.390625 C 7.046875 0.390625 5.332031 -0.1875 4.25 -1.34375 C 3.164062 -2.507812 2.625 -4.4375 2.625 -7.125 L 2.625 -21.34375 Z M 6.1875 -21.34375 "/></g></g></g><g fill="#182b5c" fill-opacity="1"><g transform="translate(109.856252, 36.281563)"><g><path d="M 5.421875 -10.765625 C 5.421875 -7.929688 5.867188 -5.828125 6.765625 -4.453125 C 7.660156 -3.085938 9.007812 -2.40625 10.8125 -2.40625 C 12.070312 -2.40625 13.125 -2.742188 13.96875 -3.421875 C 14.820312 -4.109375 15.347656 -5.164062 15.546875 -6.59375 L 19.125 -6.34375 C 18.851562 -4.300781 17.976562 -2.664062 16.5 -1.4375 C 15.03125 -0.21875 13.164062 0.390625 10.90625 0.390625 C 7.914062 0.390625 5.632812 -0.550781 4.0625 -2.4375 C 2.5 -4.320312 1.71875 -7.070312 1.71875 -10.6875 C 1.71875 -14.28125 2.503906 -17.019531 4.078125 -18.90625 C 5.660156 -20.789062 7.921875 -21.734375 10.859375 -21.734375 C 13.046875 -21.734375 14.859375 -21.164062 16.296875 -20.03125 C 17.734375 -18.90625 18.640625 -17.347656 19.015625 -15.359375 L 15.359375 -15.09375 C 15.179688 -16.269531 14.71875 -17.207031 13.96875 -17.90625 C 13.21875 -18.601562 12.148438 -18.953125 10.765625 -18.953125 C 8.890625 -18.953125 7.53125 -18.328125 6.6875 -17.078125 C 5.84375 -15.828125 5.421875 -13.722656 5.421875 -10.765625 Z M 5.421875 -10.765625 "/></g></g></g><g fill="#182b5c" fill-opacity="1"><g transform="translate(142.209066, 36.281563)"><g><path d="M 8.171875 0.390625 C 6.023438 0.390625 4.410156 -0.171875 3.328125 -1.296875 C 2.253906 -2.429688 1.71875 -3.984375 1.71875 -5.953125 C 1.71875 -8.160156 2.441406 -9.851562 3.890625 -11.03125 C 5.347656 -12.21875 7.691406 -12.851562 10.921875 -12.9375 L 15.71875 -13.015625 L 15.71875 -14.1875 C 15.71875 -15.914062 15.347656 -17.15625 14.609375 -17.90625 C 13.878906 -18.65625 12.722656 -19.03125 11.140625 -19.03125 C 9.546875 -19.03125 8.390625 -18.757812 7.671875 -18.21875 C 6.953125 -17.6875 6.519531 -16.828125 6.375 -15.640625 L 2.65625 -15.96875 C 3.257812 -19.8125 6.113281 -21.734375 11.21875 -21.734375 C 13.90625 -21.734375 15.925781 -21.117188 17.28125 -19.890625 C 18.632812 -18.660156 19.3125 -16.882812 19.3125 -14.5625 L 19.3125 -5.359375 C 19.3125 -4.304688 19.445312 -3.515625 19.71875 -2.984375 C 20 -2.453125 20.523438 -2.1875 21.296875 -2.1875 C 21.640625 -2.1875 22.03125 -2.234375 22.46875 -2.328125 L 22.46875 -0.125 C 21.570312 0.09375 20.65625 0.203125 19.71875 0.203125 C 18.40625 0.203125 17.445312 -0.140625 16.84375 -0.828125 C 16.25 -1.523438 15.914062 -2.609375 15.84375 -4.078125 L 15.71875 -4.078125 C 14.8125 -2.453125 13.753906 -1.300781 12.546875 -0.625 C 11.347656 0.0507812 9.890625 0.390625 8.171875 0.390625 Z M 8.96875 -2.265625 C 10.269531 -2.265625 11.425781 -2.5625 12.4375 -3.15625 C 13.457031 -3.75 14.257812 -4.5625 14.84375 -5.59375 C 15.425781 -6.625 15.71875 -7.6875 15.71875 -8.78125 L 15.71875 -10.53125 L 11.828125 -10.453125 C 10.160156 -10.421875 8.894531 -10.25 8.03125 -9.9375 C 7.175781 -9.625 6.515625 -9.140625 6.046875 -8.484375 C 5.585938 -7.828125 5.359375 -6.960938 5.359375 -5.890625 C 5.359375 -4.734375 5.671875 -3.835938 6.296875 -3.203125 C 6.921875 -2.578125 7.8125 -2.265625 8.96875 -2.265625 Z M 8.96875 -2.265625 "/></g></g></g><g fill="#182b5c" fill-opacity="1"><g transform="translate(176.829733, 36.281563)"><g><path d="M 10.921875 -0.15625 C 9.753906 0.15625 8.5625 0.3125 7.34375 0.3125 C 4.5 0.3125 3.078125 -1.296875 3.078125 -4.515625 L 3.078125 -18.75 L 0.609375 -18.75 L 0.609375 -21.34375 L 3.21875 -21.34375 L 4.265625 -26.109375 L 6.625 -26.109375 L 6.625 -21.34375 L 10.578125 -21.34375 L 10.578125 -18.75 L 6.625 -18.75 L 6.625 -5.28125 C 6.625 -4.257812 6.789062 -3.539062 7.125 -3.125 C 7.457031 -2.707031 8.039062 -2.5 8.875 -2.5 C 9.34375 -2.5 10.023438 -2.59375 10.921875 -2.78125 Z M 10.921875 -0.15625 "/></g></g></g><g fill="#182b5c" fill-opacity="1"><g transform="translate(200.209739, 36.281563)"><g><path d="M 2.703125 -25.875 L 2.703125 -29.265625 L 6.25 -29.265625 L 6.25 -25.875 Z M 2.703125 0 L 2.703125 -21.34375 L 6.25 -21.34375 L 6.25 0 Z M 2.703125 0 "/></g></g></g><g fill="#182b5c" fill-opacity="1"><g transform="translate(221.341612, 36.281563)"><g><path d="M 20.765625 -10.6875 C 20.765625 -6.957031 19.941406 -4.175781 18.296875 -2.34375 C 16.660156 -0.519531 14.273438 0.390625 11.140625 0.390625 C 8.023438 0.390625 5.671875 -0.554688 4.078125 -2.453125 C 2.492188 -4.359375 1.703125 -7.101562 1.703125 -10.6875 C 1.703125 -18.050781 4.890625 -21.734375 11.265625 -21.734375 C 14.523438 -21.734375 16.921875 -20.832031 18.453125 -19.03125 C 19.992188 -17.238281 20.765625 -14.457031 20.765625 -10.6875 Z M 17.046875 -10.6875 C 17.046875 -13.632812 16.609375 -15.773438 15.734375 -17.109375 C 14.859375 -18.441406 13.390625 -19.109375 11.328125 -19.109375 C 9.242188 -19.109375 7.738281 -18.425781 6.8125 -17.0625 C 5.882812 -15.707031 5.421875 -13.582031 5.421875 -10.6875 C 5.421875 -7.875 5.878906 -5.757812 6.796875 -4.34375 C 7.710938 -2.9375 9.148438 -2.234375 11.109375 -2.234375 C 13.234375 -2.234375 14.753906 -2.914062 15.671875 -4.28125 C 16.585938 -5.644531 17.046875 -7.78125 17.046875 -10.6875 Z M 17.046875 -10.6875 "/></g></g></g><g fill="#182b5c" fill-opacity="1"><g transform="translate(255.962279, 36.281563)"><g><path d="M 16.265625 0 L 16.265625 -13.53125 C 16.265625 -14.9375 16.125 -16.023438 15.84375 -16.796875 C 15.570312 -17.578125 15.132812 -18.140625 14.53125 -18.484375 C 13.925781 -18.828125 13.039062 -19 11.875 -19 C 10.164062 -19 8.816406 -18.410156 7.828125 -17.234375 C 6.835938 -16.066406 6.34375 -14.441406 6.34375 -12.359375 L 6.34375 0 L 2.796875 0 L 2.796875 -16.78125 C 2.796875 -19.269531 2.757812 -20.789062 2.6875 -21.34375 L 6.03125 -21.34375 C 6.039062 -21.269531 6.050781 -21.085938 6.0625 -20.796875 C 6.082031 -20.515625 6.101562 -20.1875 6.125 -19.8125 C 6.144531 -19.4375 6.164062 -18.726562 6.1875 -17.6875 L 6.25 -17.6875 C 7.0625 -19.164062 8.003906 -20.207031 9.078125 -20.8125 C 10.148438 -21.425781 11.484375 -21.734375 13.078125 -21.734375 C 15.421875 -21.734375 17.132812 -21.148438 18.21875 -19.984375 C 19.300781 -18.828125 19.84375 -16.90625 19.84375 -14.21875 L 19.84375 0 Z M 16.265625 0 "/></g></g></g></g></g></svg>